<svg viewBox="0 0 24 24" fill="none" >
	<g>
		<path id="Vector" d="M5.5 13.5C6.32 13.5 7 12.82 7 12C7 11.17 6.32 10.5 5.5 10.5C4.67 10.5 4 11.17 4 12C4 12.82 4.67 13.5 5.5 13.5Z"  fill-opacity="1.000000" fill-rule="nonzero"/>
		<path id="Vector" d="M7 12C7 12.82 6.32 13.5 5.5 13.5C4.67 13.5 4 12.82 4 12C4 11.17 4.67 10.5 5.5 10.5C6.32 10.5 7 11.17 7 12ZM5.69 12.46Q5.6 12.5 5.5 12.5Q5.39 12.5 5.3 12.46Q5.21 12.42 5.14 12.35Q5.07 12.28 5.03 12.19Q5 12.1 5 12Q5 11.89 5.03 11.8Q5.07 11.71 5.14 11.64Q5.21 11.57 5.3 11.53Q5.39 11.5 5.5 11.5Q5.6 11.5 5.69 11.53Q5.78 11.57 5.85 11.64Q5.92 11.71 5.96 11.8Q6 11.89 6 12Q6 12.1 5.96 12.19Q5.92 12.28 5.85 12.35Q5.78 12.42 5.69 12.46Z"  fill-opacity="1.000000" fill-rule="evenodd"/>
		<path id="Vector" d="M12 13.5C12.82 13.5 13.5 12.82 13.5 12C13.5 11.17 12.82 10.5 12 10.5C11.17 10.5 10.5 11.17 10.5 12C10.5 12.82 11.17 13.5 12 13.5Z"  fill-opacity="1.000000" fill-rule="nonzero"/>
		<path id="Vector" d="M13.5 12C13.5 12.82 12.82 13.5 12 13.5C11.17 13.5 10.5 12.82 10.5 12C10.5 11.17 11.17 10.5 12 10.5C12.82 10.5 13.5 11.17 13.5 12ZM12.19 12.46Q12.1 12.5 12 12.5Q11.89 12.5 11.8 12.46Q11.71 12.42 11.64 12.35Q11.57 12.28 11.53 12.19Q11.5 12.1 11.5 12Q11.5 11.89 11.53 11.8Q11.57 11.71 11.64 11.64Q11.71 11.57 11.8 11.53Q11.89 11.5 12 11.5Q12.1 11.5 12.19 11.53Q12.28 11.57 12.35 11.64Q12.42 11.71 12.46 11.8Q12.5 11.89 12.5 12Q12.5 12.1 12.46 12.19Q12.42 12.28 12.35 12.35Q12.28 12.42 12.19 12.46Z" fill-opacity="1.000000" fill-rule="evenodd"/>
		<path id="Vector" d="M18.5 13.5C19.32 13.5 20 12.82 20 12C20 11.17 19.32 10.5 18.5 10.5C17.67 10.5 17 11.17 17 12C17 12.82 17.67 13.5 18.5 13.5Z"  fill-opacity="1.000000" fill-rule="nonzero"/>
		<path id="Vector" d="M20 12C20 12.82 19.32 13.5 18.5 13.5C17.67 13.5 17 12.82 17 12C17 11.17 17.67 10.5 18.5 10.5C19.32 10.5 20 11.17 20 12ZM18.69 12.46Q18.6 12.5 18.5 12.5Q18.39 12.5 18.3 12.46Q18.21 12.42 18.14 12.35Q18.07 12.28 18.03 12.19Q18 12.1 18 12Q18 11.89 18.03 11.8Q18.07 11.71 18.14 11.64Q18.21 11.57 18.3 11.53Q18.39 11.5 18.5 11.5Q18.6 11.5 18.69 11.53Q18.78 11.57 18.85 11.64Q18.92 11.71 18.96 11.8Q19 11.89 19 12Q19 12.1 18.96 12.19Q18.92 12.28 18.85 12.35Q18.78 12.42 18.69 12.46Z"  fill-opacity="1.000000" fill-rule="evenodd"/>
	</g>
</svg>
