<svg viewBox="0 0 24 24" fill="none">
	<g >
		<path id="Vector" d="M13.95 2.1C14.28 2.27 14.5 2.62 14.5 3L14.5 21C14.5 21.37 14.28 21.72 13.95 21.89C13.61 22.06 13.21 22.02 12.9 21.8L5.62 16.46L3.19 16.19C1.6 16.03 0.5 14.68 0.5 13.2L0.5 10.8C0.5 9.23 1.69 7.95 3.19 7.8L5.62 7.53L12.9 2.19C13.21 1.97 13.61 1.93 13.95 2.1ZM12.5 4.97L6.59 9.3C6.45 9.4 6.28 9.47 6.11 9.49L3.41 9.79L3.39 9.79L3.39 9.79C2.9 9.84 2.5 10.27 2.5 10.8L2.5 13.2C2.5 13.71 2.88 14.15 3.39 14.2L3.41 14.2L6.11 14.5C6.28 14.52 6.45 14.59 6.59 14.69L12.5 19.02L12.5 4.97ZM16.41 7.17C16.84 6.82 17.47 6.88 17.82 7.31C18.86 8.58 19.5 10.2 19.5 12C19.5 13.78 18.86 15.45 17.82 16.73C17.47 17.16 16.84 17.22 16.41 16.87C15.98 16.52 15.92 15.89 16.27 15.46C17.03 14.54 17.5 13.31 17.5 12C17.5 10.69 17.03 9.51 16.27 8.58C15.92 8.15 15.98 7.52 16.41 7.17ZM20.48 4.22C20.11 3.81 19.48 3.78 19.07 4.16C18.66 4.53 18.64 5.16 19.01 5.57C20.54 7.24 21.5 9.5 21.5 12C21.5 14.49 20.54 16.75 19.01 18.42C18.64 18.83 18.66 19.46 19.07 19.83C19.48 20.2 20.11 20.18 20.48 19.77C22.35 17.74 23.5 15 23.5 12C23.5 8.99 22.35 6.25 20.48 4.22Z" fill-opacity="1.000000" fill-rule="evenodd"/>
	</g>
</svg>
